Coordinates
version=1
nRows=8
nColumns=42
inDegrees=yes

Units are S.I. units (second, meters, Newtons, ...)
If the header above contains a line with 'inDegrees', this indicates whether rotational values are in degrees (yes) or radians (no).

endheader
time	pelvis_tilt	pelvis_list	pelvis_rotation	pelvis_tx	pelvis_ty	pelvis_tz	hip_flexion_r	hip_adduction_r	hip_rotation_r	knee_angle_r	knee_adduction_r	knee_angle_r_beta	ankle_angle_r	subtalar_angle_r	mtp_angle_r	hip_flexion_l	hip_adduction_l	hip_rotation_l	knee_angle_l	knee_adduction_l	knee_angle_l_beta	ankle_angle_l	subtalar_angle_l	mtp_angle_l	lumbar_extension	lumbar_bending	lumbar_rotation	arm_flex_r	arm_add_r	arm_rot_r	elbow_flex_r	pro_sup_r	wrist_flex_r	wrist_dev_r	arm_flex_l	arm_add_l	arm_rot_l	elbow_flex_l	pro_sup_l	wrist_flex_l	wrist_dev_l
      0.50000000	      7.84890233	      5.80191185	     -4.65391239	     -1.61134076	      0.97640644	      0.34296093	    -22.05391953	     -7.20364770	    -17.20581777	     16.70373248	      1.62935256	      0.29153513	     14.37722867	      6.10706494	     -9.48483468	     10.22912589	      3.95036397	    -13.47344244	      5.81105680	     -1.03026197	      0.10142207	     -7.38834750	      9.79180898	     -9.48483468	    -17.16374599	    -10.73013091	      7.54506932	     23.28871119	    -16.35764772	     29.18505149	     39.15100901	     90.00000001	      0.00000000	      0.00000000	    -18.92334966	    -13.79710368	      7.70289642	     42.14345499	     90.00000001	      0.00000000	      0.00000000
      0.51000000	      7.63567436	      6.00740948	     -4.65223151	     -1.60232965	      0.97731685	      0.34113063	    -21.93500542	     -7.76221987	    -17.38782987	     17.50465757	      1.64075710	      0.30551391	     13.14497134	      6.06868502	     -9.46102138	      9.75652652	      4.37242507	    -13.76086788	      5.40001146	     -1.09529369	      0.09424798	     -7.71036393	     10.02572418	     -9.46102138	    -16.84919665	    -11.03786280	      7.35030549	     22.62795411	    -16.26119953	     29.15137912	     39.09162546	     90.00000001	      0.00000000	      0.00000000	    -18.60463172	    -13.93692911	      7.79856861	     41.96182266	     90.00000001	      0.00000000	      0.00000000
      0.52000000	      7.49509670	      6.19192840	     -4.59167200	     -1.59337457	      0.97846909	      0.33911915	    -21.80216138	     -8.37521709	    -17.56995258	     18.52111691	      1.78434906	      0.32325447	     11.90083472	      6.02013856	     -9.44110398	      9.21527854	      4.76544901	    -13.93349006	      5.03860704	     -1.08987012	      0.08794028	     -7.88398979	     10.27139356	     -9.44110398	    -16.66731411	    -11.29223529	      7.03488879	     21.98616440	    -16.14723241	     29.08793417	     39.09822444	     90.00000001	      0.00000000	      0.00000000	    -18.25382666	    -14.08111437	      7.91387787	     41.77713758	     90.00000001	      0.00000000	      0.00000000
      0.53000000	      7.40698601	      6.44519428	     -4.50835465	     -1.58436085	      0.97984701	      0.33699736	    -21.59603559	     -9.08191095	    -17.97086910	     19.78064820	      1.84739641	      0.34523744	     10.51789601	      5.86583204	     -9.41756247	      8.60862709	      5.30152595	    -14.00178979	      4.65027027	     -1.17502112	      0.08116253	     -7.98595517	     10.54175819	     -9.41756247	    -16.54753099	    -11.62127988	      6.76815794	     21.24533638	    -16.09436047	     28.95919326	     39.07268158	     90.00000001	      0.00000000	      0.00000000	    -17.79441532	    -14.27116613	      8.06704544	     41.58586365	     90.00000001	      0.00000000	      0.00000000
      0.54000000	      7.25622829	      6.79277851	     -4.33852629	     -1.57532914	      0.98113732	      0.33461179	    -21.17384374	     -9.96778482	    -18.63970629	     21.40674830	      1.94130383	      0.37361824	      9.27034284	      5.88008765	     -9.35422052	      8.07080620	      6.00995967	    -13.78533443	      4.24050421	     -1.35683128	      0.07401076	     -8.12895583	     10.64563180	     -9.35422052	    -16.37496470	    -12.01539411	      6.43240073	     20.40748945	    -15.99864167	     28.57748542	     39.08809734	     90.00000001	      0.00000000	      0.00000000	    -17.31554989	    -14.56200059	      8.46091271	     41.43558053	     90.00000001	      0.00000000	      0.00000000
      0.55000000	      7.25563282	      6.83518052	     -4.23765292	     -1.56651780	      0.98281956	      0.33260344	    -20.79460871	    -10.50178243	    -19.01642691	     23.08287637	      1.93654077	      0.40287219	      7.51867155	      5.67268278	     -9.32935688	      7.39173177	      6.22584275	    -13.68554771	      4.03831526	     -1.25129660	      0.07048190	     -7.76647951	     10.74995656	     -9.32935688	    -16.42225988	    -12.11089992	      6.16507388	     19.70088731	    -15.93530227	     28.50196395	     39.00507868	     90.00000001	      0.00000000	      0.00000000	    -16.72999910	    -14.72339025	      8.53576306	     41.23920104	     90.00000001	      0.00000000	      0.00000000
      0.56000000	      7.23733745	      6.93434245	     -4.06392918	     -1.55774164	      0.98447678	      0.33042205	    -20.25254460	    -11.13771435	    -19.51091024	     25.06569111	      1.91730669	      0.43747884	      5.70692159	      5.24880736	     -9.30268076	      6.74839849	      6.55595553	    -13.47590135	      3.81623997	     -1.24276930	      0.06660595	     -7.43301556	     10.90798630	     -9.30268076	    -16.46925888	    -12.24749503	      5.84264936	     18.91199525	    -15.90050718	     28.34186707	     38.94078024	     90.00000001	      0.00000000	      0.00000000	    -16.12180274	    -14.94725354	      8.66620310	     41.00251464	     90.00000001	      0.00000000	      0.00000000
      0.57000000	      7.03896128	      7.11696851	     -3.79835253	     -1.54920884	      0.98583286	      0.32795074	    -19.31452402	    -11.93641699	    -20.15008405	     27.46813067	      1.90050793	      0.47940932	      3.99117608	      4.76951985	     -9.15147053	      6.27499843	      7.05417346	    -12.71056979	      3.50800991	     -1.33366416	      0.06122632	     -7.33270149	     10.32985273	     -9.15147053	    -16.36406557	    -12.42433297	      5.46062423	     18.05122966	    -15.78616534	     27.84285114	     38.90084267	     90.00000001	      0.00000000	      0.00000000	    -15.43750328	    -15.26335024	      9.17699407	     40.79544977	     90.00000001	      0.00000000	      0.00000000
